HIERARCHY
ROOT hip
{
	OFFSET 0.000000 0.000000 0.000000
	CHANNELS 6 Xposition Yposition Zposition Xrotation Zrotation Yrotation 
	JOINT abdomen
	{
		OFFSET 0.000000 3.422050 0.000000
		CHANNELS 3 Xrotation Zrotation Yrotation 
		JOINT chest
		{
			OFFSET 0.000000 8.486693 -0.684411
			CHANNELS 3 Xrotation Zrotation Yrotation 
			JOINT neck
			{
				OFFSET 0.000000 10.266162 -0.273764
				CHANNELS 3 Xrotation Zrotation Yrotation 
				JOINT head
				{
					OFFSET 0.000000 3.148285 0.000000
					CHANNELS 3 Xrotation Zrotation Yrotation 
					End Site
					{
						OFFSET 0.000000 3.148289 0.000000
					}
				}
			}
			JOINT lCollar
			{
				OFFSET 3.422053 6.707223 -0.821293
				CHANNELS 3 Yrotation Zrotation Xrotation 
				JOINT lShldr
				{
					OFFSET 3.285171 0.000000 0.000000
					CHANNELS 3 Zrotation Yrotation Xrotation 
					JOINT lForeArm
					{
						OFFSET 10.129278 0.000000 0.000000
						CHANNELS 3 Yrotation Zrotation Xrotation 
						JOINT lHand
						{
							OFFSET 8.486692 0.000000 0.000000
							CHANNELS 3 Zrotation Yrotation Xrotation 
							End Site
							{
								OFFSET 4.106464 0.000000 0.000000
							}
						}
					}
				}
			}
			JOINT rCollar
			{
				OFFSET -3.558935 6.707223 -0.821293
				CHANNELS 3 Yrotation Zrotation Xrotation 
				JOINT rShldr
				{
					OFFSET -3.148289 0.000000 0.000000
					CHANNELS 3 Zrotation Yrotation Xrotation 
					JOINT rForeArm
					{
						OFFSET -10.266159 0.000000 0.000000
						CHANNELS 3 Yrotation Zrotation Xrotation 
						JOINT rHand
						{
							OFFSET -8.349810 0.000000 0.000000
							CHANNELS 3 Zrotation Yrotation Xrotation 
							End Site
							{
								OFFSET -4.106464 0.000000 0.000000
							}
						}
					}
				}
			}
		}
	}
	JOINT lThigh
	{
		OFFSET 5.338403 -1.642589 1.368821
		CHANNELS 3 Xrotation Zrotation Yrotation 
		JOINT lShin
		{
			OFFSET -2.053232 -20.121670 0.000000
			CHANNELS 3 Xrotation Zrotation Yrotation 
			JOINT lFoot
			{
				OFFSET 0.000000 -19.300380 -1.231939
				CHANNELS 3 Xrotation Yrotation Zrotation 
				End Site
				{
					OFFSET 0.000000 -2.463878 4.653993
				}
			}
		}
	}
	JOINT rThigh
	{
		OFFSET -5.338403 -1.642589 1.368821
		CHANNELS 3 Xrotation Zrotation Yrotation 
		JOINT rShin
		{
			OFFSET 2.053232 -20.121670 0.000000
			CHANNELS 3 Xrotation Zrotation Yrotation 
			JOINT rFoot
			{
				OFFSET 0.000000 -19.300380 -1.231939
				CHANNELS 3 Xrotation Yrotation Zrotation 
				End Site
				{
					OFFSET 0.000000 -2.463878 4.653993
				}
			}
		}
	}
}
MOTION
Frames: 13
Frame Time: 0.033264
0.000000 43.528500 0.000000 0.000000 0.000000 0.000000 0.000000 0.000000 0.000000 0.000000 0.000000 0.000000 0.000000 0.000000 0.000000 0.000000 0.000000 0.000000 0.000000 0.000000 0.000000 0.000000 0.000000 0.000000 0.000000 0.000000 0.000000 0.000000 0.000000 0.000000 0.000000 0.000000 0.000000 0.000000 0.000000 0.000000 0.000000 0.000000 0.000000 0.000000 0.000000 0.000000 0.000000 0.000000 0.000000 0.000000 0.000000 0.000000 0.000000 0.000000 0.000000 0.000000 0.000000 0.000000 0.000000 0.000000 0.000000 0.000000 0.000000 0.000000 
19.995884 13.722404 -1.264573 -94.004440 0.000000 0.000000 -23.427359 -0.069634 -0.051634 29.198738 -9.171547 -0.644723 -12.206553 -18.762331 1.027916 -0.339754 -1.204756 1.211920 7.507574 6.929144 2.355678 17.538853 23.089579 56.548935 -42.527130 1.510908 41.512260 -7.044582 7.510542 -8.902829 -14.471960 -5.297771 1.131990 -1.924320 -2.139952 53.267944 3.400111 -0.221679 40.962337 -5.394070 21.471182 -6.932066 -30.183197 62.176914 3.456873 96.755264 12.789714 -8.949797 3.865124 -1.415716 0.406456 -29.658504 -64.384758 -7.023045 98.323296 -12.920393 8.598310 2.556018 2.964749 -4.008729 
19.995884 13.654320 -1.264573 -94.004433 0.000000 0.000000 -22.156832 -0.069744 -0.051545 27.710302 -9.171678 -0.644754 -11.155021 -18.762342 1.028023 -1.226233 -1.204616 1.211811 6.614610 6.107629 2.358462 18.004807 23.938560 56.782825 -41.151558 1.366177 41.446289 -6.091784 7.089350 -8.550022 -14.471960 -5.297771 1.131990 -1.924320 -2.139952 53.267944 3.400111 -0.221679 40.962337 -5.482501 21.308025 -6.680623 -30.514452 61.830097 2.947899 96.755272 12.789715 -8.949797 3.912865 -1.157125 0.115741 -30.057829 -63.833267 -6.257072 98.323296 -12.920393 8.598310 2.567600 2.542358 -3.500376 
19.995884 13.586235 -1.264573 -94.004440 0.000000 0.000000 -20.883783 -0.069857 -0.051458 26.217787 -9.171809 -0.644783 -10.102061 -18.762363 1.028130 -2.113564 -1.204478 1.211700 5.721345 5.284679 2.348354 18.478239 24.786701 57.026173 -39.773006 1.219558 41.383671 -5.141157 6.661816 -8.204159 -14.471960 -5.297772 1.131990 -1.924320 -2.139952 53.267944 3.400111 -0.221679 40.962337 -5.571611 21.145203 -6.429151 -30.835587 61.481812 2.448711 96.755264 12.789715 -8.949798 3.961923 -0.898731 -0.175220 -30.433281 -63.279205 -5.513933 98.323303 -12.920395 8.598310 2.582937 2.119860 -2.991820 
19.995884 13.518150 -1.264573 -94.004448 0.000000 0.000000 -19.608509 -0.069971 -0.051374 24.721687 -9.171946 -0.644808 -9.047852 -18.762384 1.028237 -3.001644 -1.204342 1.211586 4.827617 4.460683 2.325346 18.959438 25.633783 57.279232 -38.391819 1.071166 41.324478 -4.192809 6.228129 -7.865369 -14.471960 -5.297772 1.131990 -1.924320 -2.139952 53.267944 3.400111 -0.221679 40.962337 -5.661402 20.982729 -6.177653 -31.146950 61.132183 1.958997 96.755272 12.789715 -8.949796 4.012299 -0.640548 -0.466433 -30.786129 -62.722729 -4.792342 98.323296 -12.920393 8.598310 2.602031 1.697318 -2.483037 
19.995884 13.450066 -1.264573 -94.004440 0.000000 0.000000 -18.331333 -0.070087 -0.051293 23.222486 -9.172077 -0.644829 -7.992565 -18.762405 1.028344 -3.890365 -1.204207 1.211470 3.933246 3.636022 2.289427 19.448717 26.479605 57.542290 -37.008404 0.921123 41.268803 -3.246834 5.788479 -7.533771 -14.471960 -5.297771 1.131990 -1.924320 -2.139952 53.267944 3.400111 -0.221679 40.962334 -5.751864 20.820597 -5.926126 -31.448818 60.781219 1.478461 96.755264 12.789714 -8.949796 4.063991 -0.382587 -0.757902 -31.117567 -62.164066 -4.091124 98.323288 -12.920392 8.598310 2.624884 1.274793 -1.974007 
19.995884 13.381981 -1.264573 -94.004440 0.000000 0.000000 -17.052557 -0.070206 -0.051213 21.720709 -9.172213 -0.644847 -6.936381 -18.762428 1.028450 -4.779624 -1.204075 1.211352 3.038067 2.811085 2.240592 19.946371 27.323940 57.815620 -35.623127 0.769555 41.216682 -2.303326 5.343064 -7.209478 -14.471960 -5.297771 1.131990 -1.924320 -2.139952 53.267944 3.400111 -0.221679 40.962337 -5.843001 20.658842 -5.674579 -31.741491 60.429005 1.006815 96.755264 12.789712 -8.949795 4.117000 -0.124862 -1.049632 -31.428705 -61.603355 -3.409153 98.323296 -12.920393 8.598310 2.651495 0.852345 -1.464707 
19.995884 13.313896 -1.264573 -94.004440 0.000000 0.000000 -15.772504 -0.070326 -0.051137 20.216854 -9.172346 -0.644861 -5.879477 -18.762453 1.028556 -5.669310 -1.203943 1.211232 2.141910 1.986261 2.178836 20.452749 28.166584 58.099548 -34.236393 0.616592 41.168186 -1.362375 4.892091 -6.892601 -14.471960 -5.297771 1.131990 -1.924320 -2.139952 53.267944 3.400111 -0.221679 40.962337 -5.934802 20.497438 -5.423002 -32.025246 60.075619 0.543783 96.755264 12.789714 -8.949797 4.171326 0.132614 -1.341628 -31.720608 -61.040802 -2.745389 98.323296 -12.920393 8.598310 2.681868 0.430038 -0.955117 
19.995884 13.245811 -1.264573 -94.004440 0.000000 0.000000 -14.491493 -0.070448 -0.051063 18.711443 -9.172482 -0.644872 -4.822031 -18.762478 1.028662 -6.559319 -1.203814 1.211110 1.244606 1.161941 2.104153 20.968178 29.007294 58.394390 -32.848583 0.462359 41.123379 -0.424060 4.435767 -6.583241 -14.471960 -5.297771 1.131990 -1.924320 -2.139952 53.267944 3.400111 -0.221679 40.962337 -6.027268 20.336412 -5.171401 -32.300320 59.721043 0.089092 96.755264 12.789714 -8.949797 4.226968 0.389827 -1.633895 -31.994253 -60.476559 -2.098860 98.323296 -12.920393 8.598310 2.716002 0.007933 -0.445215 
19.995884 13.177727 -1.264573 -94.004433 0.000000 0.000000 -13.209840 -0.070571 -0.050992 17.204990 -9.172621 -0.644879 -3.764227 -18.762508 1.028767 -7.449542 -1.203687 1.210986 0.345987 0.338517 2.016541 21.493021 29.845867 58.700485 -31.460094 0.306994 41.082279 0.511543 3.974301 -6.281493 -14.471960 -5.297771 1.131990 -1.924320 -2.139952 53.267944 3.400111 -0.221679 40.962337 -6.120396 20.175768 -4.919775 -32.567009 59.365391 -0.357505 96.755264 12.789714 -8.949797 4.283927 0.646765 -1.926437 -32.250546 -59.910774 -1.468657 98.323303 -12.920395 8.598310 2.753897 -0.413908 0.065020 
19.995884 13.109642 -1.264573 -94.004448 0.000000 0.000000 -11.927865 -0.070696 -0.050923 15.698015 -9.172755 -0.644883 -2.706240 -18.762537 1.028871 -8.339873 -1.203562 1.210860 -0.554111 -0.483619 1.916001 22.027624 30.682043 59.018150 -30.071321 0.150633 41.044971 1.444365 3.507909 -5.987442 -14.471960 -5.297772 1.131990 -1.924320 -2.139953 53.267944 3.400111 -0.221679 40.962341 -6.214177 20.015493 -4.668125 -32.825542 59.008690 -0.796270 96.755264 12.789715 -8.949798 4.342201 0.903415 -2.219259 -32.490345 -59.343586 -0.853913 98.323296 -12.920393 8.598310 2.795554 -0.835422 0.575610 
19.995884 13.041557 -1.264573 -94.004440 0.000000 0.000000 -10.645891 -0.070823 -0.050858 14.191034 -9.172891 -0.644882 -1.648254 -18.762571 1.028975 -9.230205 -1.203438 1.210732 -1.455853 -1.304072 1.802533 22.572382 31.515606 59.347752 -28.682652 -0.006589 41.011448 2.374342 3.036809 -5.701173 -14.471960 -5.297771 1.131990 -1.924320 -2.139952 53.267944 3.400111 -0.221679 40.962334 -6.308612 19.855614 -4.416451 -33.076176 58.650997 -1.227436 96.755257 12.789713 -8.949797 4.401792 1.159763 -2.512365 -32.714470 -58.775158 -0.253833 98.323288 -12.920391 8.598309 2.840972 -1.256549 1.086574 
19.995884 12.973473 -1.264573 -94.004440 0.000000 0.000000 -9.364237 -0.070951 -0.050795 12.684581 -9.173027 -0.644879 -0.590449 -18.762606 1.029078 -10.120428 -1.203317 1.210602 -2.359397 -2.122448 1.676140 23.127680 32.346302 59.689678 -27.294487 -0.164527 40.981750 3.301413 2.561221 -5.422756 -14.471960 -5.297771 1.131990 -1.924320 -2.139952 53.267944 3.400111 -0.221679 40.962337 -6.403694 19.696121 -4.164752 -33.319122 58.292351 -1.651237 96.755264 12.789714 -8.949797 4.462698 1.415798 -2.805761 -32.923660 -58.205608 0.332331 98.323296 -12.920391 8.598309 2.890150 -1.677226 1.597933 
